<?xml version="1.0" encoding="UTF-8"?> <svg xmlns="http://www.w3.org/2000/svg" xmlns:xlink="http://www.w3.org/1999/xlink" width="800px" height="1151px" viewBox="0 0 800 1151" style="background: #FFFFFF;"> <!-- Generator: Sketch 46 (44423) - http://www.bohemiancoding.com/sketch --> <title>Chart_1@1x</title> <desc>Created with Sketch.</desc> <defs></defs> <g id="Page-1" stroke="none" stroke-width="1" fill="none" fill-rule="evenodd"> <g id="Chart_1"> <g id="Group-6" transform="translate(87.000000, 97.000000)"> <rect id="Rectangle-2" fill="#459DD3" x="412" y="30" width="7" height="30" rx="3.5"></rect> <rect id="Rectangle-2-Copy" fill="#45D3AC" x="0" y="0" width="7" height="30" rx="3.5"></rect> <rect id="Rectangle-2-Copy-8" fill="#45D3AC" x="0" y="406" width="7" height="30" rx="3.5"></rect> <rect id="Rectangle-2-Copy-2" fill="#45D3AC" x="0" y="61" width="7" height="30" rx="3.5"></rect> <rect id="Rectangle-2-Copy-3" fill="#45D3AC" x="0" y="157" width="7" height="30" rx="3.5"></rect> <rect id="Rectangle-2-Copy-7" fill="#45D3AC" x="0" y="308" width="7" height="30" rx="3.5"></rect> <rect id="Rectangle-2-Copy-4" fill="#459DD3" x="412" y="188" width="7" height="30" rx="3.5"></rect> <rect id="Rectangle-2-Copy-9" fill="#D8D8D8" x="207" y="217" width="7" height="60" rx="3.5"></rect> <rect id="Rectangle-2-Copy-6" fill="#459DD3" x="412" y="278" width="7" height="30" rx="3.5"></rect> <rect id="Rectangle-2-Copy-10" fill="#459DD3" x="412" y="436" width="7" height="30" rx="3.5"></rect> <rect id="Rectangle-2-Copy-11" fill="#459DD3" x="412" y="496" width="7" height="30" rx="3.5"></rect> <rect id="Rectangle-2-Copy-12" fill="#459DD3" x="412" y="555" width="7" height="30" rx="3.5"></rect> <rect id="Rectangle-2-Copy-5" fill="#111111" x="619" y="218" width="7" height="60" rx="3.5"></rect> </g> <g id="Group-4" transform="translate(31.000000, 38.000000)"> <g id="ttl-copy-3"> <rect id="Rectangle-Copy" fill="#45D3AC" x="0" y="0" width="120" height="27" rx="13.5"></rect> <text id="App" font-family="Roboto-Medium, Roboto" font-size="15" font-weight="400" fill="#FFFFFF"> <tspan x="47.239502" y="18">App</tspan> </text> </g> <path d="M59.5,28.5 L59.5,1073.22998" id="Line" stroke="#45D3AC" stroke-linecap="square" stroke-dasharray="2,4"></path> </g> <g id="Group-3" transform="translate(238.000000, 38.000000)"> <g id="ttl"> <rect id="Rectangle-Copy" fill="#D8D8D8" x="0" y="0" width="120" height="27" rx="13.5"></rect> <text id="Other-Thread-Copy" font-family="Roboto-Medium, Roboto" font-size="15" font-weight="400" fill="#4A4A4A"> <tspan x="16.7561035" y="18">Other Thread</tspan> </text> </g> <path d="M59.5,28.5 L59.5,1073.22998" id="Line-Copy" stroke="#D2D1E0" stroke-linecap="square" stroke-dasharray="2,4"></path> </g> <g id="Group-2" transform="translate(444.000000, 38.000000)"> <g id="ttl-copy-4"> <rect id="Rectangle-Copy" fill="#459DD3" x="0" y="0" width="120" height="27" rx="13.5"></rect> <text id="Kernel" font-family="Roboto-Medium, Roboto" font-size="15" font-weight="400" fill="#FFFFFF"> <tspan x="39.0949707" y="18">Kernel</tspan> </text> </g> <path d="M58.5,28.5 L58.5,1073.22998" id="Line-Copy-2" stroke="#459DD3" stroke-linecap="square" stroke-dasharray="2,4"></path> </g> <g id="Group" transform="translate(650.000000, 38.000000)"> <g id="ttl-copy-2"> <rect id="Rectangle-Copy" fill="#111111" x="0" y="0" width="120" height="27" rx="13.5"></rect> <text id="Disk" font-family="Roboto-Medium, Roboto" font-size="15" font-weight="400" fill="#FFFFFF"> <tspan x="45.8991699" y="18">Disk</tspan> </text> </g> <path d="M59.5,28.5 L59.5,1073.22998" id="Line-Copy-3" stroke="#111111" stroke-linecap="square" stroke-dasharray="2,4"></path> </g> <g id="Group-5" transform="translate(90.000000, 106.000000)"> <g id="right"> <polygon id="Rectangle" fill="#979797" fill-rule="evenodd" points="0 21 406 21 406 22 0 22"></polygon> <polygon id="Triangle" fill="#979797" fill-rule="evenodd" points="411 21.5 405 26 405 17"></polygon> <rect id="Rectangle-2" fill="#FFFFFF" fill-rule="evenodd" x="143.5" y="2" width="119" height="15"></rect> <text id="Type-something" font-family="Roboto-Regular, Roboto" font-size="13" font-weight="normal" fill="#4A4A4A"> <tspan x="177.623779" y="12">read (hit)</tspan> </text> </g> <g id="right" transform="translate(0.000000, 158.000000)"> <polygon id="Rectangle" fill="#979797" fill-rule="evenodd" points="0 21 406 21 406 22 0 22"></polygon> <polygon id="Triangle" fill="#979797" fill-rule="evenodd" points="411 21.5 405 26 405 17"></polygon> <rect id="Rectangle-2" fill="#FFFFFF" fill-rule="evenodd" x="143.5" y="2" width="119" height="15"></rect> <text id="Type-something" font-family="Roboto-Regular, Roboto" font-size="13" font-weight="normal" fill="#4A4A4A"> <tspan x="170.927002" y="12">read (miss)</tspan> </text> </g> <g id="left" transform="translate(0.000000, 278.000000)"> <polygon id="Triangle-Copy" fill="#FFFFFF" fill-rule="evenodd" transform="translate(4.000000, 20.000000) scale(-1, 1) translate(-4.000000, -20.000000) " points="7 20 1 26 1 14"></polygon> <rect id="Rectangle" fill="#979797" fill-rule="evenodd" x="6" y="21" width="408" height="1"></rect> <polygon id="Triangle" fill="#979797" fill-rule="evenodd" transform="translate(5.000000, 21.500000) scale(-1, 1) translate(-5.000000, -21.500000) " points="8 21.5 2 26 2 17"></polygon> <rect id="Rectangle-2" fill="#FFFFFF" fill-rule="evenodd" x="147.5" y="2" width="119" height="15"></rect> <text id="Type-something" font-family="Roboto-Regular, Roboto" font-size="13" font-weight="normal"></text> </g> <g id="left" transform="translate(207.000000, 188.000000)"> <polygon id="Triangle-Copy" fill="#FFFFFF" fill-rule="evenodd" transform="translate(4.000000, 20.000000) scale(-1, 1) translate(-4.000000, -20.000000) " points="7 20 1 26 1 14"></polygon> <rect id="Rectangle" fill="#979797" fill-rule="evenodd" x="3" y="21" width="204" height="1"></rect> <polygon id="Triangle" fill="#979797" fill-rule="evenodd" transform="translate(5.000000, 21.500000) scale(-1, 1) translate(-5.000000, -21.500000) " points="8 21.5 2 26 2 17"></polygon> <rect id="Rectangle-2" fill="#FFFFFF" fill-rule="evenodd" x="44" y="2" width="119" height="15"></rect> <text id="Type-something" font-family="Roboto-Regular, Roboto" font-size="13" font-weight="normal" fill="#4A4A4A"> <tspan x="59.7539062" y="12">context switch</tspan> </text> </g> <g id="right" transform="translate(207.000000, 248.000000)"> <polygon id="Rectangle" fill="#979797" fill-rule="evenodd" points="0 21 203 21 203 22 0 22"></polygon> <polygon id="Triangle" fill="#979797" fill-rule="evenodd" points="204 21.5 198 26 198 17"></polygon> <rect id="Rectangle-2" fill="#FFFFFF" fill-rule="evenodd" x="42" y="2" width="119" height="15"></rect> <text id="Type-something" font-family="Roboto-Regular, Roboto" font-size="13" font-weight="normal" fill="#4A4A4A"> <tspan x="59.7539062" y="12">context switch</tspan> </text> </g> <g id="right" transform="translate(414.000000, 188.000000)"> <polygon id="Rectangle" fill="#979797" fill-rule="evenodd" points="0 21 203 21 203 22 0 22"></polygon> <polygon id="Triangle" fill="#979797" fill-rule="evenodd" points="204 21.5 198 26 198 17"></polygon> <rect id="Rectangle-2" fill="#FFFFFF" fill-rule="evenodd" x="42" y="2" width="119" height="15"></rect> <text id="Type-something" font-family="Roboto-Regular, Roboto" font-size="13" font-weight="normal" fill="#4A4A4A"> <tspan x="89.1054688" y="12">read</tspan> </text> </g> <g id="right" transform="translate(414.000000, 496.000000)"> <polygon id="Rectangle" fill="#979797" fill-rule="evenodd" points="0 21 203 21 203 22 0 22"></polygon> <polygon id="Triangle" fill="#979797" fill-rule="evenodd" points="204 21.5 198 26 198 17"></polygon> <rect id="Rectangle-2" fill="#FFFFFF" fill-rule="evenodd" x="42" y="2" width="119" height="15"></rect> <text id="Type-something" font-family="Roboto-Regular, Roboto" font-size="13" font-weight="normal" fill="#4A4A4A"> <tspan x="47.4299316" y="12">write (background)</tspan> </text> </g> <g id="left" transform="translate(414.000000, 526.000000)"> <polygon id="Triangle-Copy" fill="#FFFFFF" fill-rule="evenodd" transform="translate(4.000000, 20.000000) scale(-1, 1) translate(-4.000000, -20.000000) " points="7 20 1 26 1 14"></polygon> <rect id="Rectangle" fill="#979797" fill-rule="evenodd" x="3" y="21" width="204" height="1"></rect> <polygon id="Triangle" fill="#979797" fill-rule="evenodd" transform="translate(5.000000, 21.500000) scale(-1, 1) translate(-5.000000, -21.500000) " points="8 21.5 2 26 2 17"></polygon> <rect id="Rectangle-2" fill="#FFFFFF" fill-rule="evenodd" x="44" y="2" width="119" height="15"></rect> <text id="Type-something" font-family="Roboto-Regular, Roboto" font-size="13" font-weight="normal"></text> </g> <g id="left" transform="translate(414.000000, 248.000000)"> <polygon id="Triangle-Copy" fill="#FFFFFF" fill-rule="evenodd" transform="translate(4.000000, 20.000000) scale(-1, 1) translate(-4.000000, -20.000000) " points="7 20 1 26 1 14"></polygon> <rect id="Rectangle" fill="#979797" fill-rule="evenodd" x="3" y="21" width="204" height="1"></rect> <polygon id="Triangle" fill="#979797" fill-rule="evenodd" transform="translate(5.000000, 21.500000) scale(-1, 1) translate(-5.000000, -21.500000) " points="8 21.5 2 26 2 17"></polygon> <rect id="Rectangle-2" fill="#FFFFFF" fill-rule="evenodd" x="44" y="2" width="119" height="15"></rect> <text id="Type-something" font-family="Roboto-Regular, Roboto" font-size="13" font-weight="normal" fill="#4A4A4A"> <tspan x="77.4067383" y="12">interrupt</tspan> </text> </g> <g id="left" transform="translate(0.000000, 30.000000)"> <polygon id="Triangle-Copy" fill="#FFFFFF" fill-rule="evenodd" transform="translate(4.000000, 20.000000) scale(-1, 1) translate(-4.000000, -20.000000) " points="7 20 1 26 1 14"></polygon> <rect id="Rectangle" fill="#979797" fill-rule="evenodd" x="6" y="21" width="408" height="1"></rect> <polygon id="Triangle" fill="#979797" fill-rule="evenodd" transform="translate(5.000000, 21.500000) scale(-1, 1) translate(-5.000000, -21.500000) " points="8 21.5 2 26 2 17"></polygon> <rect id="Rectangle-2" fill="#FFFFFF" fill-rule="evenodd" x="147.5" y="2" width="119" height="15"></rect> <text id="Type-something" font-family="Roboto-Regular, Roboto" font-size="13" font-weight="normal"></text> </g> </g> <g id="right" transform="translate(90.000000, 512.000000)"> <polygon id="Rectangle" fill="#979797" fill-rule="evenodd" points="0 21 406 21 406 22 0 22"></polygon> <polygon id="Triangle" fill="#979797" fill-rule="evenodd" points="411 21.5 405 26 405 17"></polygon> <rect id="Rectangle-2" fill="#FFFFFF" fill-rule="evenodd" x="143.5" y="2" width="119" height="15"></rect> <text id="Type-something" font-family="Roboto-Regular, Roboto" font-size="13" font-weight="normal" fill="#4A4A4A"> <tspan x="176.179688" y="12">write (hit)</tspan> </text> </g> <g id="left" transform="translate(90.000000, 542.000000)"> <polygon id="Triangle-Copy" fill="#FFFFFF" fill-rule="evenodd" transform="translate(4.000000, 20.000000) scale(-1, 1) translate(-4.000000, -20.000000) " points="7 20 1 26 1 14"></polygon> <rect id="Rectangle" fill="#979797" fill-rule="evenodd" x="6" y="21" width="408" height="1"></rect> <polygon id="Triangle" fill="#979797" fill-rule="evenodd" transform="translate(5.000000, 21.500000) scale(-1, 1) translate(-5.000000, -21.500000) " points="8 21.5 2 26 2 17"></polygon> <rect id="Rectangle-2" fill="#FFFFFF" fill-rule="evenodd" x="147.5" y="2" width="119" height="15"></rect> <text id="Type-something" font-family="Roboto-Regular, Roboto" font-size="13" font-weight="normal"></text> </g> <path d="M35.5,221 L760.699283,221" id="Line-2" stroke="#E4E4E4" stroke-width="4" stroke-linecap="square"></path> <path d="M35.5,469 L760.699283,469" id="Line-2-Copy" stroke="#E4E4E4" stroke-width="4" stroke-linecap="square"></path> <path d="M35.5,716 L760.699283,716" id="Line-2-Copy-2" stroke="#E4E4E4" stroke-width="4" stroke-linecap="square"></path> <g id="Group-7" transform="translate(87.000000, 750.000000)"> <rect id="Rectangle-2-Copy-8" fill="#45D3AC" x="0" y="0" width="7" height="30" rx="3.5"></rect> <rect id="Rectangle-2-Copy-15" fill="#45D3AC" x="0" y="155" width="7" height="30" rx="3.5"></rect> <rect id="Rectangle-2-Copy-10" fill="#459DD3" x="412" y="30" width="7" height="30" rx="3.5"></rect> <rect id="Rectangle-2-Copy-14" fill="#459DD3" x="412" y="122" width="7" height="30" rx="3.5"></rect> <rect id="Rectangle-2-Copy-16" fill="#459DD3" x="412" y="232" width="7" height="30" rx="3.5"></rect> <g id="right" transform="translate(416.000000, 39.000000)"> <polygon id="Rectangle" fill="#979797" fill-rule="evenodd" points="0 21 203 21 203 22 0 22"></polygon> <polygon id="Triangle" fill="#979797" fill-rule="evenodd" points="204 21.5 198 26 198 17"></polygon> <rect id="Rectangle-2" fill="#FFFFFF" fill-rule="evenodd" x="42" y="2" width="119" height="15"></rect> <text id="Type-something" font-family="Roboto-Regular, Roboto" font-size="13" font-weight="normal" fill="#4A4A4A"> <tspan x="87.661377" y="12">write</tspan> </text> </g> <g id="left" transform="translate(416.000000, 100.000000)"> <polygon id="Triangle-Copy" fill="#FFFFFF" fill-rule="evenodd" transform="translate(4.000000, 20.000000) scale(-1, 1) translate(-4.000000, -20.000000) " points="7 20 1 26 1 14"></polygon> <rect id="Rectangle" fill="#979797" fill-rule="evenodd" x="3" y="21" width="204" height="1"></rect> <polygon id="Triangle" fill="#979797" fill-rule="evenodd" transform="translate(5.000000, 21.500000) scale(-1, 1) translate(-5.000000, -21.500000) " points="8 21.5 2 26 2 17"></polygon> <rect id="Rectangle-2" fill="#FFFFFF" fill-rule="evenodd" x="44" y="2" width="119" height="15"></rect> <text id="Type-something" font-family="Roboto-Regular, Roboto" font-size="13" font-weight="normal" fill="#4A4A4A"> <tspan x="77.4067383" y="12">interrupt</tspan> </text> </g> <g id="right" transform="translate(416.000000, 241.000000)"> <polygon id="Rectangle" fill="#979797" fill-rule="evenodd" points="0 21 203 21 203 22 0 22"></polygon> <polygon id="Triangle" fill="#979797" fill-rule="evenodd" points="204 21.5 198 26 198 17"></polygon> <rect id="Rectangle-2" fill="#FFFFFF" fill-rule="evenodd" x="42" y="2" width="119" height="15"></rect> <text id="Type-something" font-family="Roboto-Regular, Roboto" font-size="13" font-weight="normal" fill="#4A4A4A"> <tspan x="47.4299316" y="12">write (background)</tspan> </text> </g> <rect id="Rectangle-2-Copy-11" fill="#111111" x="619" y="61" width="7" height="60" rx="3.5"></rect> <rect id="Rectangle-2-Copy-17" fill="#111111" x="619" y="262" width="7" height="60" rx="3.5"></rect> <rect id="Rectangle-2-Copy-13" fill="#D8D8D8" x="206" y="61" width="7" height="60" rx="3.5"></rect> <g id="left" transform="translate(209.000000, 39.000000)"> <polygon id="Triangle-Copy" fill="#FFFFFF" fill-rule="evenodd" transform="translate(4.000000, 20.000000) scale(-1, 1) translate(-4.000000, -20.000000) " points="7 20 1 26 1 14"></polygon> <rect id="Rectangle" fill="#979797" fill-rule="evenodd" x="3" y="21" width="204" height="1"></rect> <polygon id="Triangle" fill="#979797" fill-rule="evenodd" transform="translate(5.000000, 21.500000) scale(-1, 1) translate(-5.000000, -21.500000) " points="8 21.5 2 26 2 17"></polygon> <rect id="Rectangle-2" fill="#FFFFFF" fill-rule="evenodd" x="44" y="2" width="119" height="15"></rect> <text id="Type-something" font-family="Roboto-Regular, Roboto" font-size="13" font-weight="normal" fill="#4A4A4A"> <tspan x="59.7539062" y="12">context switch</tspan> </text> </g> <g id="right" transform="translate(209.000000, 100.000000)"> <polygon id="Rectangle" fill="#979797" fill-rule="evenodd" points="0 21 203 21 203 22 0 22"></polygon> <polygon id="Triangle" fill="#979797" fill-rule="evenodd" points="204 21.5 198 26 198 17"></polygon> <rect id="Rectangle-2" fill="#FFFFFF" fill-rule="evenodd" x="42" y="2" width="119" height="15"></rect> <text id="Type-something" font-family="Roboto-Regular, Roboto" font-size="13" font-weight="normal" fill="#4A4A4A"> <tspan x="59.7539062" y="12">context switch</tspan> </text> </g> <g id="right" transform="translate(3.000000, 9.000000)"> <polygon id="Rectangle" fill="#979797" fill-rule="evenodd" points="0 21 406 21 406 22 0 22"></polygon> <polygon id="Triangle" fill="#979797" fill-rule="evenodd" points="411 21.5 405 26 405 17"></polygon> <rect id="Rectangle-2" fill="#FFFFFF" fill-rule="evenodd" x="143.5" y="2" width="119" height="15"></rect> <text id="Type-something" font-family="Roboto-Regular, Roboto" font-size="13" font-weight="normal" fill="#4A4A4A"> <tspan x="148.97998" y="12">write (memory full)</tspan> </text> </g> <g id="left" transform="translate(3.000000, 132.000000)"> <polygon id="Triangle-Copy" fill="#FFFFFF" fill-rule="evenodd" transform="translate(4.000000, 20.000000) scale(-1, 1) translate(-4.000000, -20.000000) " points="7 20 1 26 1 14"></polygon> <rect id="Rectangle" fill="#979797" fill-rule="evenodd" x="6" y="21" width="408" height="1"></rect> <polygon id="Triangle" fill="#979797" fill-rule="evenodd" transform="translate(5.000000, 21.500000) scale(-1, 1) translate(-5.000000, -21.500000) " points="8 21.5 2 26 2 17"></polygon> <rect id="Rectangle-2" fill="#FFFFFF" fill-rule="evenodd" x="147.5" y="2" width="119" height="15"></rect> <text id="Type-something" font-family="Roboto-Regular, Roboto" font-size="13" font-weight="normal" fill="#4A4A4A"> <tspan x="148.97998" y="12">write (memory full)</tspan> </text> </g> </g> <rect id="Rectangle-2-Copy-11" fill="#111111" x="706" y="623" width="7" height="30" rx="3.5"></rect> </g> </g> </svg> 